<?xml version="1.0" standalone="no"?>
<!DOCTYPE svg PUBLIC "-//W3C//DTD SVG 20010904//EN"
 "http://www.w3.org/TR/2001/REC-SVG-20010904/DTD/svg10.dtd">
<svg version="1.0" xmlns="http://www.w3.org/2000/svg"
 width="500.000000pt" height="500.000000pt" viewBox="0 0 500.000000 500.000000"
 preserveAspectRatio="xMidYMid meet">

<g transform="translate(0.000000,500.000000) scale(0.100000,-0.100000)"
fill="#000000" stroke="none">
<path d="M0 2500 l0 -2500 2500 0 2500 0 0 2500 0 2500 -2500 0 -2500 0 0
-2500z m3086 1883 c3 -18 13 -22 71 -29 72 -8 71 -9 -32 -31 l-40 -8 -9 -65
c-7 -52 -11 -60 -17 -40 -4 14 -7 42 -8 62 -1 44 -6 47 -71 55 -27 3 -50 9
-50 14 0 4 25 11 55 14 59 8 58 7 71 90 l7 50 9 -45 c5 -25 11 -55 14 -67z
m823 -245 c12 -76 21 -153 21 -172 0 -19 4 -37 8 -40 5 -3 80 -14 168 -26 87
-12 167 -24 178 -28 11 -5 -41 -16 -140 -31 -88 -13 -170 -26 -184 -30 -27 -8
-22 13 -60 -265 -8 -56 -16 -84 -21 -75 -4 8 -18 87 -30 174 -12 88 -23 161
-23 161 -1 1 -66 12 -146 23 -207 31 -215 33 -199 41 8 4 89 18 180 30 l165
23 24 171 c21 160 28 192 35 184 2 -2 12 -65 24 -140z m-1009 -42 c148 -19
256 -43 276 -64 12 -11 15 -27 11 -57 -4 -23 -9 -138 -13 -256 -4 -118 -11
-224 -15 -236 -9 -25 -41 -31 -56 -10 -6 6 -13 41 -17 77 -12 128 -106 265
-224 328 -89 48 -178 65 -300 59 -91 -4 -110 -9 -175 -40 -86 -41 -147 -100
-185 -176 -24 -49 -27 -68 -27 -151 0 -88 3 -101 33 -163 23 -46 62 -97 119
-158 47 -49 84 -91 82 -94 -2 -2 -87 -30 -189 -63 -102 -33 -209 -69 -237 -81
l-52 -20 -27 45 c-15 25 -41 85 -57 132 -26 75 -31 106 -35 217 -3 99 -1 145
12 195 71 282 310 470 666 524 64 9 307 5 410 -8z m1075 -851 c363 -16 637
-141 705 -320 29 -78 24 -188 -12 -267 -73 -157 -303 -357 -606 -527 -178
-100 -615 -301 -628 -288 -2 2 44 30 104 62 462 252 694 477 732 711 28 169
-100 250 -450 285 -126 13 -500 6 -610 -10 -36 -6 -130 -17 -210 -26 -80 -10
-149 -19 -153 -22 -4 -3 41 -55 101 -117 169 -174 244 -300 282 -471 43 -198
20 -413 -63 -568 -146 -275 -445 -427 -838 -427 -267 0 -552 65 -589 135 -18
34 -8 552 12 610 22 65 78 57 78 -12 0 -67 32 -190 71 -271 89 -185 251 -277
484 -276 156 1 250 34 348 124 128 117 165 301 97 483 -45 120 -164 257 -345
397 -56 43 -148 117 -205 165 -57 47 -109 84 -115 81 -7 -2 -46 -14 -86 -26
-140 -41 -684 -249 -876 -334 -453 -201 -858 -405 -1010 -508 -76 -51 -50 -5
55 100 148 149 348 291 662 472 437 252 886 448 1340 586 426 129 779 206
1135 249 193 22 285 24 590 10z m-2556 -210 c2 -46 13 -56 74 -62 32 -3 57 -9
57 -13 0 -4 -25 -10 -57 -13 -61 -6 -72 -16 -74 -62 0 -16 -4 -41 -9 -55 -6
-20 -9 -13 -15 38 -4 34 -12 65 -17 68 -4 3 -33 8 -63 11 -67 7 -63 15 13 28
l57 10 9 65 c7 52 11 60 17 40 4 -14 8 -38 8 -55z"/>
</g>
</svg>
