<?xml version="1.0" standalone="no"?>
<!DOCTYPE svg PUBLIC "-//W3C//DTD SVG 20010904//EN"
 "http://www.w3.org/TR/2001/REC-SVG-20010904/DTD/svg10.dtd">
<svg version="1.0" xmlns="http://www.w3.org/2000/svg"
 width="500.000000pt" height="500.000000pt" viewBox="0 0 500.000000 500.000000"
 preserveAspectRatio="xMidYMid meet">

<g transform="translate(0.000000,500.000000) scale(0.100000,-0.100000)"
fill="#000000" stroke="none">
<path d="M1830 3558 c0 -9 -10 -19 -22 -21 -23 -4 -23 -4 -1 -6 12 0 24 -9 26
-18 4 -17 5 -17 6 0 1 10 10 17 24 18 14 0 17 2 7 6 -8 3 -21 12 -27 21 -12
14 -13 14 -13 0z"/>
<path d="M2144 3440 l-9 -65 -65 -11 -65 -11 65 -9 65 -9 9 -65 10 -65 9 60
c6 33 14 63 20 67 6 3 35 9 66 14 l56 7 -65 11 -65 11 -8 55 c-11 80 -13 81
-23 10z"/>
<path d="M1610 3440 c-191 -25 -297 -172 -246 -341 9 -30 19 -60 24 -66 7 -12
54 -1 181 43 11 3 7 13 -16 37 -49 53 -63 79 -63 123 0 84 70 144 169 144 101
0 174 -56 188 -145 3 -20 11 -34 17 -32 7 2 12 43 14 110 2 96 1 106 -17 112
-18 6 -181 26 -191 24 -3 -1 -30 -5 -60 -9z"/>
<path d="M1983 3109 c-143 -14 -330 -55 -516 -115 -242 -79 -538 -233 -691
-361 -81 -67 -65 -70 50 -8 63 35 177 90 252 124 136 60 381 151 407 151 19 0
194 -140 221 -177 39 -52 54 -92 54 -141 0 -96 -79 -162 -193 -162 -119 0
-192 69 -209 199 -5 39 -25 35 -32 -6 -3 -21 -6 -78 -6 -126 l0 -88 45 -20
c66 -29 220 -37 305 -15 84 21 163 76 197 135 15 25 28 47 29 49 1 2 14 -8 29
-22 15 -14 42 -28 61 -32 37 -7 96 9 114 31 11 13 16 12 37 -5 46 -36 53 -28
53 63 0 81 1 83 30 100 l30 18 0 -129 c0 -71 5 -143 11 -161 9 -26 51 -61 74
-61 3 0 5 38 5 84 l0 85 35 -15 c45 -18 69 -18 112 3 61 29 88 117 59 188 -31
73 -144 99 -200 46 -14 -13 -26 -18 -30 -13 -3 6 16 26 42 46 74 54 107 107
107 173 0 50 -3 57 -37 88 -71 65 -243 94 -445 74z m244 -145 c104 -29 110
-96 16 -211 -40 -50 -53 -54 -53 -14 0 24 -3 28 -19 24 -11 -3 -28 -14 -37
-24 -17 -19 -18 -19 -40 2 -15 14 -41 23 -71 26 -40 4 -55 0 -85 -21 -23 -15
-38 -20 -38 -13 0 31 -54 122 -101 172 l-51 54 34 6 c140 26 351 26 445 -1z
m-142 -284 c23 -25 14 -45 -32 -69 -21 -11 -34 -20 -30 -21 4 0 22 7 38 16 36
18 45 14 30 -15 -16 -29 -56 -37 -86 -17 -30 20 -35 79 -8 108 21 24 65 23 88
-2z m357 3 c27 -24 24 -87 -4 -107 -30 -21 -54 -20 -78 4 -24 24 -26 77 -3
102 20 22 61 23 85 1z"/>
<path d="M1191 3028 c-1 -11 -9 -18 -23 -19 -21 0 -21 -1 -4 -8 11 -4 23 -16
27 -27 7 -18 8 -17 8 3 1 14 9 23 24 26 22 4 22 4 0 6 -12 0 -24 9 -26 19 -4
16 -5 16 -6 0z"/>
<path d="M3290 2725 l0 -226 43 3 42 3 3 172 c3 195 -5 231 -57 258 l-31 16 0
-226z"/>
<path d="M2610 2720 l0 -220 39 0 38 0 5 80 c6 104 40 147 82 104 12 -12 16
-36 16 -100 l0 -84 40 0 40 0 0 104 c0 89 -3 107 -20 129 -27 34 -78 44 -118
23 -17 -9 -33 -16 -37 -16 -3 0 -5 33 -5 74 0 64 -3 76 -25 100 -13 14 -31 26
-40 26 -13 0 -15 -28 -15 -220z"/>
<path d="M2990 2757 c-38 -19 -70 -74 -70 -121 0 -118 115 -183 207 -118 28
20 29 20 52 1 47 -39 51 -30 51 116 0 74 -3 135 -6 135 -12 0 -49 -24 -57 -36
-6 -10 -16 -8 -44 11 -40 28 -93 32 -133 12z m130 -77 c26 -26 25 -68 -2 -97
-37 -40 -85 -24 -102 34 -7 22 8 62 28 75 20 14 56 8 76 -12z"/>
<path d="M3180 2380 c0 -103 1 -110 20 -110 19 0 20 7 20 98 0 92 -8 122 -32
122 -4 0 -8 -49 -8 -110z"/>
<path d="M3680 2380 c0 -102 1 -110 19 -110 17 0 20 8 23 48 3 39 6 47 23 47
17 0 20 -8 23 -47 3 -40 6 -48 23 -48 16 0 19 7 19 54 0 62 -15 80 -60 74 -27
-4 -30 -2 -30 24 0 33 -16 68 -30 68 -6 0 -10 -46 -10 -110z"/>
<path d="M4180 2380 c0 -103 1 -110 20 -110 19 0 20 7 20 98 0 92 -8 122 -32
122 -4 0 -8 -49 -8 -110z"/>
<path d="M2380 2376 l0 -106 35 0 c46 0 101 23 114 48 23 43 8 117 -28 139 -9
6 -40 14 -69 18 l-52 7 0 -106z m83 53 c28 -15 37 -28 37 -56 0 -28 -33 -63
-60 -63 -18 0 -20 7 -20 65 0 68 5 74 43 54z"/>
<path d="M2563 2464 c-8 -22 11 -37 36 -29 25 8 28 30 5 39 -25 9 -34 7 -41
-10z"/>
<path d="M2823 2473 c-20 -8 -15 -31 8 -38 25 -8 44 7 36 29 -6 16 -21 19 -44
9z"/>
<path d="M3370 2467 c-27 -14 -35 -36 -26 -72 4 -16 18 -27 48 -37 32 -9 43
-18 43 -33 0 -27 -30 -31 -52 -6 -20 24 -53 28 -53 6 0 -8 9 -24 20 -35 29
-29 84 -27 115 5 41 41 27 75 -40 98 -47 16 -61 47 -21 47 14 0 28 -4 31 -10
7 -12 45 -14 45 -2 0 13 -15 29 -37 41 -28 14 -42 14 -73 -2z"/>
<path d="M2928 2443 c-10 -11 -18 -25 -18 -31 0 -7 -4 -12 -10 -12 -5 0 -10
-7 -10 -15 0 -8 5 -15 10 -15 6 0 10 -22 10 -50 0 -43 3 -50 20 -50 17 0 20 7
20 50 0 38 4 50 15 50 19 0 20 26 1 33 -8 3 -16 18 -18 33 -3 26 -3 26 -20 7z"/>
<path d="M2661 2391 c-27 -27 -28 -82 -1 -106 14 -13 29 -16 55 -12 33 5 36 4
33 -16 -3 -25 -43 -36 -61 -18 -13 13 -47 15 -47 3 0 -21 39 -42 77 -42 61 0
73 20 73 118 l0 81 -27 0 c-16 -1 -40 2 -55 6 -19 5 -31 2 -47 -14z m84 -41
c7 -23 -10 -50 -30 -50 -20 0 -37 27 -30 50 9 27 51 27 60 0z"/>
<path d="M3020 2390 c-26 -26 -26 -81 -2 -103 21 -19 54 -22 82 -7 13 7 21 7
25 0 16 -25 25 -5 25 55 0 60 -9 80 -25 55 -4 -7 -14 -5 -28 5 -29 20 -53 19
-77 -5z m85 -40 c7 -23 -10 -50 -30 -50 -20 0 -37 27 -30 50 9 27 51 27 60 0z"/>
<path d="M3545 2398 c-28 -16 -35 -28 -35 -64 0 -61 77 -87 123 -41 l22 22
-25 3 c-13 2 -26 -1 -28 -7 -2 -6 -12 -11 -23 -11 -20 0 -36 40 -24 59 8 14
42 14 50 1 7 -12 45 -13 45 -2 0 31 -73 59 -105 40z"/>
<path d="M3873 2400 c-68 -28 -45 -130 30 -130 75 0 106 75 51 119 -29 23 -46
25 -81 11z m65 -56 c4 -25 -22 -49 -43 -40 -15 5 -21 47 -8 60 14 14 48 1 51
-20z"/>
<path d="M4043 2400 c-68 -28 -45 -130 30 -130 75 0 106 75 51 119 -29 23 -46
25 -81 11z m65 -56 c4 -25 -22 -49 -43 -40 -15 5 -21 47 -8 60 14 14 48 1 51
-20z"/>
<path d="M2570 2335 c0 -58 2 -65 20 -65 17 0 20 7 20 53 0 49 -12 77 -32 77
-4 0 -8 -29 -8 -65z"/>
<path d="M2820 2335 c0 -63 1 -65 25 -65 22 0 25 4 25 39 0 51 -15 91 -35 91
-12 0 -15 -13 -15 -65z"/>
</g>
</svg>
